<svg fill="white" id="facade" enable-background="new 0 0 300 300" height="512" viewBox="0 0 300 300" width="512" xmlns="http://www.w3.org/2000/svg"><g><path d="m258.206 95.594c-2.359-1.457-5.302-1.59-7.784-.35l-96 48c-2.71 1.356-4.422 4.126-4.422 7.156v112c0 2.772 1.436 5.348 3.794 6.806 1.285.794 2.743 1.194 4.206 1.194 1.223 0 2.448-.28 3.578-.845l96-48c2.71-1.355 4.422-4.125 4.422-7.155v-112c0-2.773-1.436-5.348-3.794-6.806zm-12.206 113.862-80 40v-94.111l80-40z"/><path d="m253.995 78.132c-.104-3.147-2.048-5.941-4.963-7.136l-99.6-40.8c-2.012-.823-4.273-.794-6.264.085l-92.4 40.8c-2.806 1.239-4.656 3.973-4.764 7.038s1.547 5.922 4.259 7.354l92.4 48.8c1.168.616 2.451.926 3.736.926 1.204 0 2.409-.271 3.52-.816l99.6-48.8c2.83-1.385 4.582-4.302 4.476-7.451zm-107.459 40.092-74.187-39.181 74.169-32.75 79.97 32.759z"/><path d="m137.831 143.376-88-48c-2.478-1.35-5.484-1.296-7.915.145-2.428 1.441-3.916 4.056-3.916 6.879v112c0 2.928 1.599 5.621 4.169 7.023l88 48c1.195.651 2.514.977 3.831.977 1.414 0 2.826-.375 4.084-1.121 2.428-1.441 3.916-4.056 3.916-6.879v-112c0-2.928-1.599-5.621-4.169-7.024zm-76.899 70.056 65.068-47.322v21.672l-48.04 34.938zm-6.932-36.412 48.041-34.94 17.027 9.288-65.068 47.322zm32.497-43.418-32.497 23.634v-41.36zm7.007 97.596 32.496-23.633v41.359z"/></g></svg>