<svg fill="white" xmlns="http://www.w3.org/2000/svg" width="512" height="512" viewBox="0 0 512 512"><g><path d="M491.88,230.86A8,8,0,0,0,504,224V184a8,8,0,0,0-3.88-6.86L432,136.27V64a8,8,0,0,0-8-8H376a8,8,0,0,0-8,8V97.87L260.12,33.14a8.015,8.015,0,0,0-8.24,0l-240,144A8,8,0,0,0,8,184v40a8,8,0,0,0,12.12,6.86L56,209.33V440H16a8,8,0,0,0-8,8v32a8,8,0,0,0,8,8H496a8,8,0,0,0,8-8V448a8,8,0,0,0-8-8H456V209.33ZM384,72h32v54.67l-32-19.2ZM488,456v16H24V456ZM72,440V199.73L256,89.33l184,110.4V440ZM260.12,73.14a8.015,8.015,0,0,0-8.24,0L24,209.87V188.53L256,49.33l232,139.2v21.34Z"/><path d="M336,240a64.372,64.372,0,0,0-55.43,32H192V208a8,8,0,0,0-8-8H120a8,8,0,0,0-8,8V400a8,8,0,0,0,8,8h64a8,8,0,0,0,8-8V336h8a8.008,8.008,0,0,0,5.66-2.34L216,323.31l10.34,10.35a8.015,8.015,0,0,0,11.32,0L248,323.31l10.34,10.35A8.008,8.008,0,0,0,264,336h16.57A64,64,0,1,0,336,240ZM176,392H128V216h48v56H160V232a8,8,0,0,0-16,0V376a8,8,0,0,0,16,0V336h16Zm160-40a48.248,48.248,0,0,1-43.38-27.43,8.011,8.011,0,0,0-7.23-4.57H267.31l-13.65-13.66a8.015,8.015,0,0,0-11.32,0L232,316.69l-10.34-10.35a8.015,8.015,0,0,0-11.32,0L196.69,320H160v-8h24a8,8,0,0,0,0-16H160v-8H285.39a8.011,8.011,0,0,0,7.23-4.57A48,48,0,1,1,336,352Z"/><path d="M352,328a24,24,0,1,0-24-24A24.028,24.028,0,0,0,352,328Zm0-32a8,8,0,1,1-8,8A8.009,8.009,0,0,1,352,296Z"/></g></svg>
