<svg fill="white" id="_x33_0" enable-background="new 0 0 62.618 62.414" height="512" viewBox="0 0 62.618 62.414" width="512" xmlns="http://www.w3.org/2000/svg"><g><path d="m33.618 52.414c-1.654 0-3 1.346-3 3s1.346 3 3 3 3-1.346 3-3-1.346-3-3-3zm0 4c-.552 0-1-.449-1-1s.448-1 1-1 1 .449 1 1-.448 1-1 1z"/><path d="m55.618 52.414c-1.654 0-3 1.346-3 3s1.346 3 3 3 3-1.346 3-3-1.346-3-3-3zm0 4c-.552 0-1-.449-1-1s.448-1 1-1 1 .449 1 1-.448 1-1 1z"/><path d="m7.67 59.098 1.896.632 1.052-3.154 1.052 3.154 1.896-.632-2.948-8.846z"/><path d="m52.618 18.414c1.654 0 3-1.346 3-3s-1.346-3-3-3-3 1.346-3 3 1.346 3 3 3zm0-4c.552 0 1 .449 1 1s-.448 1-1 1-1-.449-1-1 .448-1 1-1z"/><path d="m58.618 20.414h2c1.103 0 2-.897 2-2v-6c0-1.103-.897-2-2-2h-2v-3.171c0-.801-.313-1.555-.879-2.122l-5.121-5.121-5.121 5.121c-.566.566-.879 1.32-.879 2.122v3.171h-2v-3.171c0-.801-.313-1.555-.879-2.122l-5.121-5.121-5.121 5.121c-.566.566-.879 1.32-.879 2.122v3.171h-2v-3.171c0-.801-.313-1.555-.879-2.122l-5.121-5.121-5.121 5.121c-.566.566-.879 1.32-.879 2.122v3.171h-2v-3.171c0-.801-.313-1.555-.879-2.122l-5.121-5.121-5.121 5.121c-.566.567-.879 1.32-.879 2.122v5.171c-2.206 0-4 1.794-4 4 0 .859.284 1.711.8 2.4l3.2 4.267v21.333h-4v2h.557l3 8h-4.175l4 8h13.236l4-8h-4.175l3-8h2.057l.5.666v7.334c0 1.103.897 2 2 2h2.08c.488 3.387 3.401 6 6.92 6h22c3.859 0 7-3.14 7-7v-4c0-1.849-.562-3.569-1.522-5h1.522v-2h-3.356c-.208-.168-.422-.329-.644-.478zm-11 28v6h-2v-6h-2v6h-2v-6h-2v3.413c-.574-.956-1.367-1.762-2.312-2.352l2.892-5.061h13.42c3.53 0 6.451 2.63 6.925 6.032-1.266-1.255-3.006-2.032-4.925-2.032-2.548 0-4.775 1.373-6 3.413v-3.413zm-19.493 2.676-19.347-25.796 3.407-2.555 19.048 26.103c-1.235.449-2.308 1.234-3.108 2.248zm-18.507-35.676c0-.551.448-1 1-1s1 .449 1 1-.448 1-1 1-1-.449-1-1zm-.734 2.801-3.466 2.599-.96-1.28 3.482-2.611zm-2.266 4.199 3.445-2.583.943 1.293-3.428 2.571zm12 5.749-2-2.741v-5.008h2zm15 20.251c-.072 0-.142.009-.214.011l-8.52-11.675c.185-.204.442-.336.734-.336h9.382l3.484 6.969-3.021 5.286c-.588-.161-1.205-.255-1.845-.255zm-1-14h-2v-14h2zm14 .045c-.346-.03-.697-.045-1.05-.045h-.95v-14h2zm-1.05 1.955c4.101 0 7.708 2.436 9.279 6.094-.403-.055-.811-.094-1.229-.094h-13.382l-3-6zm15.05-24v6h-2v-6zm-11.707-5.879 3.707-3.707 3.707 3.707c.188.189.293.44.293.708v34.334c-1.501-3.375-4.452-5.861-8-6.777v-27.557c0-.267.105-.519.293-.708zm-2.293 5.879v6h-2v-6zm-11.707-5.879 3.707-3.707 3.707 3.707c.188.189.293.44.293.708v27.171h-8v-27.171c0-.267.105-.519.293-.708zm-2.293 5.879v6h-2v-6zm-11.707-5.879 3.707-3.707 3.707 3.707c.188.189.293.44.293.708v27.171h-3c-.728 0-1.398.263-1.924.704l-3.076-4.215v-23.66c0-.267.105-.519.293-.708zm-2.293 5.879v6h-2v-6zm-11.707-5.879 3.707-3.707 3.707 3.707c.188.189.293.44.293.708v15.438l-3.202-4.388c1.266-.352 2.202-1.502 2.202-2.879 0-1.654-1.346-3-3-3-1.055 0-1.98.55-2.515 1.375-.409-.468-.919-.83-1.485-1.065v-5.481c0-.267.105-.519.293-.708zm-2.293 7.879h.476c.637 0 1.24.307 1.615.821l.053.072-3.503 2.627-.24-.32c-.259-.344-.4-.771-.4-1.2-.001-1.103.897-2 1.999-2zm2 11.333 8 10.667v8h-2.055l-1.945-4.539-1.945 4.539h-2.055zm-3.807 20.667h5.005l-.733 1.709zm15.189 10-2 4h-10.764l-2-4h3.825l-2.712-7.23 3.804 1.521 2.465-5.752 2.465 5.752 3.804-1.521-2.712 7.23zm-3.847-8.291-.733-1.709h5.005zm2.465-3.709v-5.333l4 5.333zm8 5.333 2.439 3.251c-.167.452-.288.925-.359 1.416h-2.08zm4 5.667c0-2.757 2.243-5 5-5s5 2.243 5 5-2.243 5-5 5-5-2.243-5-5zm9.89 5c1.074-1.051 1.806-2.443 2.031-4h8.16c.224 1.557.956 2.949 2.031 4zm17.11 0c-2.757 0-5-2.243-5-5s2.243-5 5-5 5 2.243 5 5-2.243 5-5 5z"/><path d="m38.618 18.414c1.654 0 3-1.346 3-3s-1.346-3-3-3-3 1.346-3 3 1.346 3 3 3zm0-4c.552 0 1 .449 1 1s-.448 1-1 1-1-.449-1-1 .448-1 1-1z"/><path d="m24.618 18.414c1.654 0 3-1.346 3-3s-1.346-3-3-3-3 1.346-3 3 1.346 3 3 3zm0-4c.552 0 1 .449 1 1s-.448 1-1 1-1-.449-1-1 .448-1 1-1z"/></g></svg>