<svg fill="white" id="Layer" enable-background="new 0 0 64 64" height="512" viewBox="0 0 64 64" width="512" xmlns="http://www.w3.org/2000/svg"><path d="m55 8c-.553 0-1 .447-1 1v5h-6v-5c0-.553-.447-1-1-1s-1 .447-1 1v5h-6v-5c0-.553-.447-1-1-1s-1 .447-1 1v5h-6v-5c0-.553-.447-1-1-1h-22c-.553 0-1 .447-1 1v46c0 .553.447 1 1 1h46c.553 0 1-.447 1-1v-24-22c0-.553-.447-1-1-1zm-15 22v-6h6v6zm-8 0v-6h6v6zm16-6h6v6h-6zm6-8v6h-6v-6zm-8 0v6h-6v-6zm-8 0v6h-6v-6zm-8-6v21c0 .553.447 1 1 1h23v16h-44v-38zm-20 44v-4h44v4z"/><path d="m13 42c.553 0 1-.447 1-1v-27h9c.553 0 1-.447 1-1s-.447-1-1-1h-10c-.553 0-1 .447-1 1v28c0 .553.447 1 1 1z"/><path d="m16 45c0 .553.447 1 1 1h30c.553 0 1-.447 1-1s-.447-1-1-1h-30c-.553 0-1 .447-1 1z"/><circle cx="51" cy="45" r="1"/><circle cx="13" cy="45" r="1"/><circle cx="27" cy="13" r="1"/></svg>